#N canvas 122 23 1908 891 10;
#N canvas 178 23 1681 830 MobMuPlat_stuff 0;
#X obj -24 464 send toGUI;
#X obj -28 40 receive fromGUI;
#X obj -29 74 route list;
#X obj 596 46 receive fromNetwork;
#X obj 596 78 route list;
#X obj 602 421 send toNetwork;
#X obj 321 78 route list;
#X obj 321 46 receive fromSystem;
#X obj -255 42 adc~;
#X obj -256 425 dac~;
#X text -256 231 audio in/out here;
#X text -28 233 gui elements in/out here;
#X floatatom -27 368 5 0 0 0 - - -, f 5;
#X text -29 129 values from changed gui elements come out here;
#X obj 307 363 tgl 15 0 empty empty empty 17 7 0 10 -262144 -1 -1 0
1;
#X obj 308 458 send toSystem;
#X text 332 360 turn iphone camera flash on/off;
#X msg 308 383 list /flash \$1;
#X obj 322 102 route /tilts /shake;
#X obj -220 572 notein;
#X msg 602 374 list /valueToNetwork 0.5 2 stuff;
#X obj 597 102 route /valueToNetwork /somethingElse;
#X text -223 544 oh \, and MIDI goes in and out through normal PureData
midi objects...;
#X msg 336 428 list /setPage 2;
#X text 338 407 scroll interface to third page;
#X text 585 230 UDP network data in/out here. Do NOT use [netsend]/[netreceive].
The network address is multicast by default \, and can be set to a
specific IP address in the app network settings. The port is specified
by the patch \, but can be overriden in the app network settings.;
#X text 296 238 device hardware connections in/out here;
#X obj 919 427 send toNetwork;
#X msg 918 382 list /send /allButMe /valueToNetwork foo bar;
#X text 917 324 use the "/send" command to send messages via an enabled
networking protocol ("Ping and Connect" or "LANdini"). MEssages will
be received via normal UDP receive (via "receive fromNetwork").;
#X obj -158 198 nbx 5 14 -1e+37 1e+37 0 0 empty empty empty 0 -8 0
10 -262144 -1 -1 0 256;
#X msg -26 400 list /myGrid 7 4 \$1;
#X obj 61 328 tgl 15 0 empty empty empty 17 7 0 10 -262144 -1 -1 0
1;
#X obj 145 267 tgl 15 0 empty empty empty 17 7 0 10 -262144 -1 -1 0
1;
#X obj -196 337 random 16;
#X obj 29 486 list /myGrid;
#X obj -62 329 random 16;
#X obj -142 402 pack \$1 \$2 \$3;
#X msg -141 432 list /myGrid \$1 \$2 \$3;
#X obj -129 335 random 8;
#X obj 147 301 metro 100;
#X obj -124 220 nbx 5 14 -1e+37 1e+37 0 0 empty empty empty 0 -8 0
10 -262144 -1 -1 0 256;
#X obj -87 198 nbx 5 14 -1e+37 1e+37 0 0 empty empty empty 0 -8 0 10
-262144 -1 -1 0 256;
#X obj -30 102 route /myGrid;
#X obj -158 170 unpack 0 0 0;
#X obj 357 627 route;
#X obj -157 135 route 0;
#X connect 1 0 2 0;
#X connect 2 0 43 0;
#X connect 3 0 4 0;
#X connect 4 0 21 0;
#X connect 6 0 18 0;
#X connect 7 0 6 0;
#X connect 12 0 31 0;
#X connect 14 0 17 0;
#X connect 17 0 15 0;
#X connect 20 0 5 0;
#X connect 23 0 15 0;
#X connect 28 0 27 0;
#X connect 31 0 0 0;
#X connect 32 0 37 2;
#X connect 33 0 40 0;
#X connect 34 0 37 0;
#X connect 37 0 38 0;
#X connect 38 0 0 0;
#X connect 39 0 37 1;
#X connect 40 0 32 0;
#X connect 40 0 36 0;
#X connect 40 0 34 0;
#X connect 40 0 39 0;
#X connect 43 0 46 0;
#X connect 44 0 30 0;
#X connect 44 1 41 0;
#X connect 44 2 42 0;
#X connect 46 0 44 0;
#X restore 1542 133 pd MobMuPlat_stuff;
#X obj 158 671 send toGUI;
#X msg 158 638 myGrid 0 0 \$1;
#X msg 285 638 myGrid 1 0 \$1;
#X msg 428 638 myGrid 2 0 \$1;
#X msg 575 638 myGrid 3 0 \$1;
#X msg 718 638 myGrid 4 0 \$1;
#X msg 875 638 myGrid 5 0 \$1;
#X msg 1028 638 myGrid 6 0 \$1;
#X msg 1185 638 myGrid 7 0 \$1;
#X obj 99 176 unpack 0 0 0 0 0 0 0 0 0 0 0 0 0 0 0 0;
#X obj 743 189 tgl 15 0 empty empty empty 17 7 0 10 -262144 -1 -1 0
1;
#X obj 767 189 tgl 15 0 empty empty empty 17 7 0 10 -262144 -1 -1 0
1;
#X obj 787 189 tgl 15 0 empty empty empty 17 7 0 10 -262144 -1 -1 0
1;
#X obj 807 189 tgl 15 0 empty empty empty 17 7 0 10 -262144 -1 -1 0
1;
#X obj 827 189 tgl 15 0 empty empty empty 17 7 0 10 -262144 -1 -1 0
1;
#X obj 847 189 tgl 15 0 empty empty empty 17 7 0 10 -262144 -1 -1 0
1;
#X obj 867 189 tgl 15 0 empty empty empty 17 7 0 10 -262144 -1 -1 0
1;
#X obj 887 189 tgl 15 0 empty empty empty 17 7 0 10 -262144 -1 -1 0
1;
#X obj 907 189 tgl 15 0 empty empty empty 17 7 0 10 -262144 -1 -1 0
1;
#X obj 927 189 tgl 15 0 empty empty empty 17 7 0 10 -262144 -1 -1 0
1;
#X obj 947 189 tgl 15 0 empty empty empty 17 7 0 10 -262144 -1 -1 0
1;
#X obj 967 189 tgl 15 0 empty empty empty 17 7 0 10 -262144 -1 -1 0
1;
#X obj 987 189 tgl 15 0 empty empty empty 17 7 0 10 -262144 -1 -1 0
1;
#X obj 1007 189 tgl 15 0 empty empty empty 17 7 0 10 -262144 -1 -1
0 1;
#X obj 1027 189 tgl 15 0 empty empty empty 17 7 0 10 -262144 -1 -1
0 1;
#X obj 1047 189 tgl 15 0 empty empty empty 17 7 0 10 -262144 -1 -1
0 1;
#X msg 93 146 1 1 1 1 1 1 1 1 1 1 1 1 1 1 1 1 1;
#X obj 285 671 send toGUI;
#X obj 428 671 send toGUI;
#X obj 575 671 send toGUI;
#X obj 718 671 send toGUI;
#X obj 875 671 send toGUI;
#X obj 1028 671 send toGUI;
#X obj 1185 671 send toGUI;
#X obj 114 934 send toGUI;
#X obj 221 934 send toGUI;
#X obj 384 934 send toGUI;
#X obj 531 934 send toGUI;
#X obj 674 934 send toGUI;
#X obj 841 934 send toGUI;
#X obj 1004 934 send toGUI;
#X obj 1151 934 send toGUI;
#X msg 114 901 myGrid 8 0 \$1;
#X msg 221 901 myGrid 9 0 \$1;
#X msg 384 901 myGrid 10 0 \$1;
#X msg 531 901 myGrid 11 0 \$1;
#X msg 674 901 myGrid 12 0 \$1;
#X msg 841 901 myGrid 13 0 \$1;
#X msg 1004 901 myGrid 14 0 \$1;
#X msg 1151 901 myGrid 15 0 \$1;
#X msg 97 123 0 0 0 0 0 0 0 0 0 0 0 0 0 0 0 0;
#N canvas 247 23 592 547 drive_euclid 1;
#X obj 267 85 hradio 12 1 0 16 empty empty empty 0 -8 0 10 -262144
-1 -1 15;
#X obj 72 204 f;
#X obj 101 204 + 1;
#X floatatom 71 274 5 0 0 0 - - -, f 5;
#X obj 267 204 + 1;
#X floatatom 222 336 5 0 0 0 - - -, f 5;
#X obj 222 274 bng 15 250 50 0 empty empty empty 17 7 0 10 -262144
-1 -1;
#X obj 71 399 spigot, f 7;
#X obj 110 274 tgl 30 0 empty empty empty 17 7 0 10 -262144 -1 -1 0
1;
#X obj 124 399 spigot;
#X obj 157 336 tgl 15 0 empty empty empty 17 7 0 10 -262144 -1 -1 1
1;
#X obj 157 274 loadbang;
#X obj 157 312 bng 15 250 50 0 empty empty empty 17 7 0 10 -262144
-1 -1;
#X obj 71 360 + 1;
#X obj 222 360 + 1;
#X obj 252 18 loadbang;
#X obj 110 241 r Linear_Random_R;
#X obj 283 47 r steps;
#X obj 72 109 tgl 15 0 empty empty empty 17 7 0 10 -262144 -1 -1 1
1;
#X obj 21 427 s count;
#X obj 72 241 mod 16;
#X obj 222 312 random 16;
#X obj 72 146 metro 150;
#X msg 251 47 15;
#X text 164 394 Euclid patch from http://forum.pdpatchrepo.info/user/stutter
;
#X obj 72 56 loadbang;
#X msg 72 78 1;
#X obj 113 461 hradio 12 1 0 17 empty empty empty 0 -8 0 10 -262144
-1 -1 1;
#X obj 116 437 hradio 12 1 0 17 empty empty empty 0 -8 0 10 -262144
-1 -1 7;
#X obj 391 39 inlet;
#X connect 0 0 4 0;
#X connect 1 0 2 0;
#X connect 1 0 20 0;
#X connect 2 0 1 1;
#X connect 3 0 13 0;
#X connect 4 0 20 1;
#X connect 4 0 21 1;
#X connect 5 0 14 0;
#X connect 6 0 21 0;
#X connect 7 0 19 0;
#X connect 7 0 27 0;
#X connect 8 0 7 1;
#X connect 8 0 12 0;
#X connect 9 0 19 0;
#X connect 9 0 28 0;
#X connect 10 0 9 1;
#X connect 11 0 12 0;
#X connect 12 0 10 0;
#X connect 13 0 9 0;
#X connect 14 0 7 0;
#X connect 15 0 23 0;
#X connect 16 0 8 0;
#X connect 17 0 0 0;
#X connect 18 0 22 0;
#X connect 20 0 3 0;
#X connect 20 0 6 0;
#X connect 21 0 5 0;
#X connect 22 0 1 0;
#X connect 23 0 0 0;
#X connect 25 0 26 0;
#X connect 26 0 18 0;
#X connect 29 0 0 0;
#X restore 541 46 pd drive_euclid;
#N canvas 0 23 1758 956 euclid_calculate 0;
#X obj 317 282 select 1;
#X text 473 122 specify desired number of hits per bar;
#X text 428 202 specify length of bar;
#X obj 317 217 % \$3;
#X obj 317 152 + \$2;
#X obj 317 184 * \$1;
#X obj 317 250 < \$1;
#X text 358 59 rhythm offset/rotation;
#X obj 411 129 nbx 5 14 -1e+37 1e+37 0 0 empty hits_1 empty 0 -8 0
10 -262144 -1 -1 2 256;
#X obj 366 203 nbx 5 14 -1e+37 1e+37 0 0 empty empty empty 0 -8 0 10
-262144 -1 -1 16 256;
#X obj 338 132 nbx 5 14 -1e+37 1e+37 0 0 empty empty empty 0 -8 0 10
-262144 -1 -1 4 256;
#X obj 338 83 random 7;
#X obj 338 106 + 1;
#X obj 338 60 bng 15 250 50 0 empty offset1 empty 17 7 0 10 -262144
-1 -1;
#X obj 169 374 r count;
#X obj 271 112 r count;
#X text 381 281 <-- bang out on each hit. (Silent on rest.);
#X msg 302 59 11;
#X text 71 -63 comment;
#X msg 398 178 16;
#X obj 399 155 loadbang;
#X obj 386 411 hradio 12 1 0 17 empty empty empty 0 -8 0 10 -262144
-1 -1 7;
#X obj 302 20 loadbang;
#X obj 858 264 s s1_1;
#X obj 945 264 s s1_2;
#X obj 1030 264 s s1_3;
#X obj 1117 264 s s1_4;
#X obj 1200 264 s s1_5;
#X obj 1287 264 s s1_6;
#X obj 1372 264 s s1_7;
#X obj 1459 264 s s1_8;
#X obj 868 429 s s1_9;
#X obj 955 429 s s1_10;
#X obj 1040 429 s s1_11;
#X obj 1127 429 s s1_12;
#X obj 1211 429 s s1_13;
#X obj 1297 429 s s1_14;
#X obj 1382 429 s s1_15;
#X obj 1468 429 s s1_16;
#X obj 130 718 tgl 15 0 empty empty empty 17 7 0 10 -262144 -1 -1 0
1;
#X obj 130 692 t f b;
#X msg 157 716 1;
#X obj 258 718 tgl 15 0 empty empty empty 17 7 0 10 -262144 -1 -1 0
1;
#X obj 258 692 t f b;
#X msg 285 716 2;
#X obj 400 718 tgl 15 0 empty empty empty 17 7 0 10 -262144 -1 -1 0
1;
#X obj 400 692 t f b;
#X obj 548 718 tgl 15 0 empty empty empty 17 7 0 10 -262144 -1 -1 0
1;
#X obj 548 692 t f b;
#X obj 696 718 tgl 15 0 empty empty empty 17 7 0 10 -262144 -1 -1 0
1;
#X obj 696 692 t f b;
#X obj 850 718 tgl 15 0 empty empty empty 17 7 0 10 -262144 -1 -1 0
1;
#X obj 850 692 t f b;
#X obj 1006 718 tgl 15 0 empty empty empty 17 7 0 10 -262144 -1 -1
0 1;
#X obj 1006 692 t f b;
#X obj 1154 718 tgl 15 0 empty empty empty 17 7 0 10 -262144 -1 -1
0 1;
#X obj 1154 692 t f b;
#X obj 80 864 tgl 15 0 empty empty empty 17 7 0 10 -262144 -1 -1 0
1;
#X obj 80 838 t f b;
#X obj 208 864 tgl 15 0 empty empty empty 17 7 0 10 -262144 -1 -1 0
1;
#X obj 208 838 t f b;
#X obj 350 864 tgl 15 0 empty empty empty 17 7 0 10 -262144 -1 -1 1
1;
#X obj 350 838 t f b;
#X obj 498 864 tgl 15 0 empty empty empty 17 7 0 10 -262144 -1 -1 0
1;
#X obj 498 838 t f b;
#X obj 646 864 tgl 15 0 empty empty empty 17 7 0 10 -262144 -1 -1 0
1;
#X obj 646 838 t f b;
#X obj 800 864 tgl 15 0 empty empty empty 17 7 0 10 -262144 -1 -1 0
1;
#X obj 800 838 t f b;
#X obj 956 864 tgl 15 0 empty empty empty 17 7 0 10 -262144 -1 -1 0
1;
#X obj 956 838 t f b;
#X obj 1104 864 tgl 15 0 empty empty empty 17 7 0 10 -262144 -1 -1
0 1;
#X obj 1104 838 t f b;
#X text 1174 865 pic step;
#X text 1169 890 set sequencer array;
#X msg 427 716 3;
#X msg 575 717 4;
#X msg 723 716 5;
#X msg 877 716 6;
#X msg 1033 716 7;
#X msg 1181 716 8;
#X msg 107 862 9;
#X msg 235 862 10;
#X msg 377 862 11;
#X msg 525 862 12;
#X msg 673 862 13;
#X msg 827 862 14;
#X msg 983 862 15;
#X msg 1131 862 16;
#X obj 85 744 tabwrite seq1;
#X obj 204 742 tabwrite seq1;
#X obj 494 742 tabwrite seq1;
#X obj 346 742 tabwrite seq1;
#X obj 642 742 tabwrite seq1;
#X obj 796 742 tabwrite seq1;
#X obj 952 742 tabwrite seq1;
#X obj 1100 742 tabwrite seq1;
#X obj 26 888 tabwrite seq1;
#X obj 154 888 tabwrite seq1;
#X obj 296 888 tabwrite seq1;
#X obj 444 888 tabwrite seq1;
#X obj 592 888 tabwrite seq1;
#X obj 746 888 tabwrite seq1;
#X obj 902 888 tabwrite seq1;
#X obj 1050 888 tabwrite seq1;
#X obj 1398 749 table seq1;
#X obj 94 409 tabwrite seq1;
#X obj 857 144 r count;
#X obj 858 237 tabread seq1;
#X obj 789 194 nbx 5 14 -1e+37 1e+37 0 0 empty empty empty 0 -8 0 10
-262144 -1 -1 7 256;
#X text 67 437 write sequence into array;
#X obj 857 193 select 1;
#X msg 857 215 1;
#X obj 945 237 tabread seq1;
#X obj 944 193 select 2;
#X msg 944 215 2;
#X obj 1030 237 tabread seq1;
#X obj 1117 237 tabread seq1;
#X obj 1029 193 select 3;
#X obj 1116 193 select 4;
#X msg 1028 215 3;
#X msg 1116 215 4;
#X obj 1200 237 tabread seq1;
#X obj 1287 237 tabread seq1;
#X obj 1372 237 tabread seq1;
#X obj 1459 237 tabread seq1;
#X obj 1199 193 select 5;
#X obj 1286 193 select 6;
#X obj 1371 193 select 7;
#X obj 1458 193 select 8;
#X msg 1199 215 5;
#X msg 1286 215 6;
#X msg 1370 214 7;
#X msg 1458 215 8;
#X obj 867 304 r count;
#X obj 868 397 tabread seq1;
#X obj 799 354 nbx 5 14 -1e+37 1e+37 0 0 empty empty empty 0 -8 0 10
-262144 -1 -1 7 256;
#X obj 955 397 tabread seq1;
#X obj 1040 397 tabread seq1;
#X obj 1127 397 tabread seq1;
#X obj 1210 397 tabread seq1;
#X obj 1297 397 tabread seq1;
#X obj 1382 397 tabread seq1;
#X obj 1468 400 tabread seq1;
#X obj 867 353 select 9;
#X obj 954 353 select 10;
#X obj 1039 353 select 11;
#X obj 1126 353 select 12;
#X obj 1209 353 select 13;
#X obj 1295 353 select 14;
#X obj 1381 352 select 15;
#X obj 1468 352 select 16;
#X msg 867 375 9;
#X msg 954 375 10;
#X msg 1038 375 11;
#X msg 1126 375 12;
#X msg 1209 375 13;
#X msg 1296 375 14;
#X msg 1379 374 15;
#X msg 1468 375 16;
#X text 891 495 readGUI array and send to;
#X connect 3 0 6 0;
#X connect 4 0 5 0;
#X connect 5 0 3 0;
#X connect 6 0 0 0;
#X connect 6 0 106 0;
#X connect 8 0 5 1;
#X connect 8 0 6 1;
#X connect 9 0 3 1;
#X connect 10 0 4 1;
#X connect 11 0 12 0;
#X connect 12 0 10 0;
#X connect 13 0 11 0;
#X connect 14 0 21 0;
#X connect 14 0 106 1;
#X connect 15 0 4 0;
#X connect 17 0 4 1;
#X connect 19 0 9 0;
#X connect 20 0 19 0;
#X connect 22 0 17 0;
#X connect 40 0 39 0;
#X connect 40 0 89 0;
#X connect 40 1 41 0;
#X connect 41 0 89 1;
#X connect 43 0 42 0;
#X connect 43 0 90 0;
#X connect 43 1 44 0;
#X connect 44 0 90 1;
#X connect 46 0 45 0;
#X connect 46 0 92 0;
#X connect 46 1 75 0;
#X connect 48 0 47 0;
#X connect 48 0 91 0;
#X connect 48 1 76 0;
#X connect 50 0 49 0;
#X connect 50 0 93 0;
#X connect 50 1 77 0;
#X connect 52 0 51 0;
#X connect 52 0 94 0;
#X connect 52 1 78 0;
#X connect 54 0 53 0;
#X connect 54 0 95 0;
#X connect 54 1 79 0;
#X connect 56 0 55 0;
#X connect 56 0 96 0;
#X connect 56 1 80 0;
#X connect 58 0 57 0;
#X connect 58 0 97 0;
#X connect 58 1 81 0;
#X connect 60 0 59 0;
#X connect 60 0 98 0;
#X connect 60 1 82 0;
#X connect 62 0 61 0;
#X connect 62 0 99 0;
#X connect 62 1 83 0;
#X connect 64 0 63 0;
#X connect 64 0 100 0;
#X connect 64 1 84 0;
#X connect 66 0 65 0;
#X connect 66 0 101 0;
#X connect 66 1 85 0;
#X connect 68 0 67 0;
#X connect 68 0 102 0;
#X connect 68 1 86 0;
#X connect 70 0 69 0;
#X connect 70 0 103 0;
#X connect 70 1 87 0;
#X connect 72 0 71 0;
#X connect 72 0 104 0;
#X connect 72 1 88 0;
#X connect 75 0 92 1;
#X connect 76 0 91 1;
#X connect 77 0 93 1;
#X connect 78 0 94 1;
#X connect 79 0 95 1;
#X connect 80 0 96 1;
#X connect 81 0 97 1;
#X connect 82 0 98 1;
#X connect 83 0 99 1;
#X connect 84 0 100 1;
#X connect 85 0 101 1;
#X connect 86 0 102 1;
#X connect 87 0 103 1;
#X connect 88 0 104 1;
#X connect 107 0 109 0;
#X connect 107 0 111 0;
#X connect 107 0 114 0;
#X connect 107 0 118 0;
#X connect 107 0 126 0;
#X connect 107 0 127 0;
#X connect 107 0 128 0;
#X connect 107 0 129 0;
#X connect 107 0 119 0;
#X connect 108 0 23 0;
#X connect 111 0 112 0;
#X connect 112 0 108 0;
#X connect 113 0 24 0;
#X connect 114 0 115 0;
#X connect 115 0 113 0;
#X connect 116 0 25 0;
#X connect 117 0 26 0;
#X connect 118 0 120 0;
#X connect 119 0 121 0;
#X connect 120 0 116 0;
#X connect 121 0 117 0;
#X connect 122 0 27 0;
#X connect 123 0 28 0;
#X connect 124 0 29 0;
#X connect 125 0 30 0;
#X connect 126 0 130 0;
#X connect 127 0 131 0;
#X connect 128 0 132 0;
#X connect 129 0 133 0;
#X connect 130 0 122 0;
#X connect 131 0 123 0;
#X connect 132 0 124 0;
#X connect 133 0 125 0;
#X connect 134 0 136 0;
#X connect 134 0 144 0;
#X connect 134 0 145 0;
#X connect 134 0 146 0;
#X connect 134 0 148 0;
#X connect 134 0 149 0;
#X connect 134 0 150 0;
#X connect 134 0 151 0;
#X connect 134 0 147 0;
#X connect 135 0 31 0;
#X connect 137 0 32 0;
#X connect 138 0 33 0;
#X connect 139 0 34 0;
#X connect 140 0 35 0;
#X connect 141 0 36 0;
#X connect 142 0 37 0;
#X connect 143 0 38 0;
#X connect 144 0 152 0;
#X connect 145 0 153 0;
#X connect 146 0 154 0;
#X connect 147 0 155 0;
#X connect 148 0 156 0;
#X connect 149 0 157 0;
#X connect 150 0 158 0;
#X connect 151 0 159 0;
#X connect 152 0 135 0;
#X connect 153 0 137 0;
#X connect 154 0 138 0;
#X connect 155 0 139 0;
#X connect 156 0 140 0;
#X connect 157 0 141 0;
#X connect 158 0 142 0;
#X connect 159 0 143 0;
#X restore 543 89 pd euclid_calculate;
#X obj 195 58 nbx 5 14 -1e+37 1e+37 0 0 hits_1 empty empty 0 -8 0 10
-4034 -1 -1 5 256;
#X obj 198 98 bng 15 250 50 0 offset1 empty empty 17 7 0 10 -4034 -1
-1;
#X obj 195 -35 loadbang;
#X msg 196 8 5;
#X msg 233 -4 \; pd dsp 1;
#X obj 167 566 r s1_1;
#X obj 293 566 r s1_2;
#X obj 434 566 r s1_3;
#X obj 585 566 r s1_4;
#X obj 723 566 r s1_5;
#X obj 883 566 r s1_6;
#X obj 1035 566 r s1_7;
#X obj 1191 566 r s1_8;
#X obj 121 829 r s1_9;
#X obj 227 829 r s1_10;
#X obj 391 829 r s1_11;
#X obj 539 829 r s1_12;
#X obj 680 829 r s1_13;
#X obj 848 829 r s1_14;
#X obj 1010 829 r s1_15;
#X obj 1160 829 r s1_16;
#X obj 88 258 s grid_0_0;
#X obj 159 258 s grid_1_0;
#X obj 228 258 s grid_2_0;
#X obj 298 258 s grid_3_0;
#X obj 368 258 s grid_4_0;
#X obj 438 258 s grid_5_0;
#X obj 508 258 s grid_6_0;
#X obj 578 258 s grid_7_0;
#X obj 648 258 s grid_8_0;
#X obj 719 258 s grid_9_0;
#X obj 788 258 s grid_10_0;
#X obj 862 258 s grid_11_0;
#X obj 937 258 s grid_12_0;
#X obj 1011 258 s grid_13_0;
#X obj 1085 258 s grid_14_0;
#X obj 1159 258 s grid_15_0;
#X obj 158 545 r grid_0_0;
#X obj 285 545 r grid_1_0;
#X obj 428 545 r grid_2_0;
#X obj 575 545 r grid_3_0;
#X obj 718 545 r grid_4_0;
#X obj 875 545 r grid_5_0;
#X obj 1028 545 r grid_6_0;
#X obj 1185 545 r grid_7_0;
#X obj 114 808 r grid_8_0;
#X obj 221 808 r grid_9_0;
#X obj 384 808 r grid_10_0;
#X obj 531 808 r grid_11_0;
#X obj 674 808 r grid_12_0;
#X obj 841 808 r grid_13_0;
#X obj 1004 808 r grid_14_0;
#X obj 428 545 r grid_2_0;
#X obj 1151 808 r grid_15_0;
#X text 268 97 <<< random offset;
#X text 250 54 <<< specify number of hits;
#X text 101 14 Euclid;
#X text 705 40 comment;
#X obj 543 17 hradio 12 1 0 16 empty empty empty 0 -8 0 10 -262144
-1 -1 15;
#X text 515 -11 step length;
#X obj 1317 225 receive fromGUI;
#X obj 1316 259 route list;
#X text 1316 314 values from changed gui elements come out here;
#X obj 1187 383 nbx 5 14 -1e+37 1e+37 0 0 empty empty empty 0 -8 0
10 -262144 -1 -1 0 256;
#X obj 1221 405 nbx 5 14 -1e+37 1e+37 0 0 empty empty empty 0 -8 0
10 -262144 -1 -1 0 256;
#X obj 1258 383 nbx 5 14 -1e+37 1e+37 0 0 empty empty empty 0 -8 0
10 -262144 -1 -1 0 256;
#X obj 1315 287 route /myGrid;
#X obj 1187 355 unpack 0 0 0;
#X obj 1188 320 route 0;
#X obj 1028 376 r count;
#X obj 1028 424 nbx 5 14 -1e+37 1e+37 0 0 empty empty empty 0 -8 0
10 -262144 -1 -1 7 256;
#X obj 474 -35 loadbang;
#X msg 473 -6 15;
#X obj 130 718 tgl 15 0 empty empty empty 17 7 0 10 -262144 -1 -1 0
1;
#X text 1232 830 from Euclid;
#X text 1233 809 from message unpack;
#X obj 686 467 dac~;
#X obj 660 387 osc~ 100;
#X obj 708 423 *~;
#X msg 787 382 1 \, 0 50;
#X obj 723 386 vline~;
#X obj 76 742 tabwrite play1;
#X obj 56 506 table play1;
#X obj 130 692 t f b;
#X obj 1015 476 tabread play1;
#X obj 1009 503 nbx 5 14 -1e+37 1e+37 0 0 empty empty empty 0 -8 0
10 -262144 -1 -1 0 256;
#X msg 157 716 1;
#X obj 794 347 select 1;
#X obj 258 718 tgl 15 0 empty empty empty 17 7 0 10 -262144 -1 -1 0
1;
#X obj 258 692 t f b;
#X obj 204 742 tabwrite play1;
#X msg 285 716 2;
#X obj 400 718 tgl 15 0 empty empty empty 17 7 0 10 -262144 -1 -1 1
1;
#X obj 346 742 tabwrite play1;
#X obj 400 692 t f b;
#X obj 548 718 tgl 15 0 empty empty empty 17 7 0 10 -262144 -1 -1 0
1;
#X obj 548 692 t f b;
#X obj 494 742 tabwrite play1;
#X obj 696 718 tgl 15 0 empty empty empty 17 7 0 10 -262144 -1 -1 0
1;
#X obj 642 742 tabwrite play1;
#X obj 696 692 t f b;
#X obj 850 718 tgl 15 0 empty empty empty 17 7 0 10 -262144 -1 -1 0
1;
#X obj 850 692 t f b;
#X obj 796 742 tabwrite play1;
#X obj 1006 718 tgl 15 0 empty empty empty 17 7 0 10 -262144 -1 -1
0 1;
#X obj 952 742 tabwrite play1;
#X obj 1006 692 t f b;
#X obj 1154 718 tgl 15 0 empty empty empty 17 7 0 10 -262144 -1 -1
0 1;
#X obj 1154 692 t f b;
#X obj 1100 742 tabwrite play1;
#X obj 80 984 tgl 15 0 empty empty empty 17 7 0 10 -262144 -1 -1 0
1;
#X obj 26 1008 tabwrite play1;
#X obj 80 958 t f b;
#X obj 208 984 tgl 15 0 empty empty empty 17 7 0 10 -262144 -1 -1 0
1;
#X obj 208 958 t f b;
#X obj 154 1008 tabwrite play1;
#X obj 350 984 tgl 15 0 empty empty empty 17 7 0 10 -262144 -1 -1 1
1;
#X obj 296 1008 tabwrite play1;
#X obj 350 958 t f b;
#X obj 498 984 tgl 15 0 empty empty empty 17 7 0 10 -262144 -1 -1 0
1;
#X obj 498 958 t f b;
#X obj 444 1008 tabwrite play1;
#X obj 646 984 tgl 15 0 empty empty empty 17 7 0 10 -262144 -1 -1 0
1;
#X obj 592 1008 tabwrite play1;
#X obj 646 958 t f b;
#X obj 800 984 tgl 15 0 empty empty empty 17 7 0 10 -262144 -1 -1 0
1;
#X obj 800 958 t f b;
#X obj 746 1008 tabwrite play1;
#X obj 956 984 tgl 15 0 empty empty empty 17 7 0 10 -262144 -1 -1 0
1;
#X obj 902 1008 tabwrite play1;
#X obj 956 958 t f b;
#X obj 1104 984 tgl 15 0 empty empty empty 17 7 0 10 -262144 -1 -1
0 1;
#X obj 1104 958 t f b;
#X obj 1050 1008 tabwrite play1;
#X text 1250 901 name line and step;
#X text 1234 934 send to GUI;
#X text 1174 985 pic step;
#X text 1169 1010 set sequencer array;
#X msg 427 716 3;
#X msg 575 717 4;
#X msg 723 716 5;
#X msg 877 716 6;
#X msg 1033 716 7;
#X msg 1181 716 8;
#X msg 107 982 9;
#X msg 235 982 10;
#X msg 377 982 11;
#X msg 525 982 12;
#X msg 673 982 13;
#X msg 827 982 14;
#X msg 983 982 15;
#X msg 1131 982 16;
#X connect 2 0 1 0;
#X connect 3 0 28 0;
#X connect 4 0 29 0;
#X connect 5 0 30 0;
#X connect 6 0 31 0;
#X connect 7 0 32 0;
#X connect 8 0 33 0;
#X connect 9 0 34 0;
#X connect 10 0 11 0;
#X connect 10 0 75 0;
#X connect 10 1 12 0;
#X connect 10 1 76 0;
#X connect 10 2 13 0;
#X connect 10 2 77 0;
#X connect 10 3 14 0;
#X connect 10 3 78 0;
#X connect 10 4 15 0;
#X connect 10 4 79 0;
#X connect 10 5 16 0;
#X connect 10 5 80 0;
#X connect 10 6 17 0;
#X connect 10 6 81 0;
#X connect 10 7 18 0;
#X connect 10 7 82 0;
#X connect 10 8 19 0;
#X connect 10 8 83 0;
#X connect 10 9 20 0;
#X connect 10 9 84 0;
#X connect 10 10 21 0;
#X connect 10 10 85 0;
#X connect 10 11 22 0;
#X connect 10 11 86 0;
#X connect 10 12 23 0;
#X connect 10 12 87 0;
#X connect 10 13 24 0;
#X connect 10 13 88 0;
#X connect 10 14 25 0;
#X connect 10 14 89 0;
#X connect 10 15 26 0;
#X connect 10 15 90 0;
#X connect 27 0 10 0;
#X connect 43 0 35 0;
#X connect 44 0 36 0;
#X connect 45 0 37 0;
#X connect 46 0 38 0;
#X connect 47 0 39 0;
#X connect 48 0 40 0;
#X connect 49 0 41 0;
#X connect 50 0 42 0;
#X connect 51 0 10 0;
#X connect 56 0 57 0;
#X connect 56 0 58 0;
#X connect 57 0 54 0;
#X connect 59 0 137 0;
#X connect 59 0 2 0;
#X connect 60 0 143 0;
#X connect 60 0 3 0;
#X connect 61 0 4 0;
#X connect 61 0 148 0;
#X connect 62 0 5 0;
#X connect 62 0 150 0;
#X connect 63 0 6 0;
#X connect 63 0 154 0;
#X connect 64 0 7 0;
#X connect 64 0 156 0;
#X connect 65 0 8 0;
#X connect 65 0 160 0;
#X connect 66 0 9 0;
#X connect 66 0 162 0;
#X connect 67 0 43 0;
#X connect 67 0 166 0;
#X connect 68 0 44 0;
#X connect 68 0 168 0;
#X connect 69 0 45 0;
#X connect 69 0 172 0;
#X connect 70 0 46 0;
#X connect 70 0 174 0;
#X connect 71 0 47 0;
#X connect 71 0 178 0;
#X connect 72 0 48 0;
#X connect 72 0 180 0;
#X connect 73 0 49 0;
#X connect 73 0 184 0;
#X connect 74 0 50 0;
#X connect 74 0 186 0;
#X connect 91 0 2 0;
#X connect 91 0 137 0;
#X connect 92 0 3 0;
#X connect 92 0 143 0;
#X connect 93 0 4 0;
#X connect 93 0 148 0;
#X connect 94 0 5 0;
#X connect 94 0 150 0;
#X connect 95 0 6 0;
#X connect 95 0 154 0;
#X connect 96 0 7 0;
#X connect 96 0 156 0;
#X connect 97 0 8 0;
#X connect 97 0 160 0;
#X connect 98 0 9 0;
#X connect 98 0 162 0;
#X connect 99 0 43 0;
#X connect 99 0 166 0;
#X connect 100 0 44 0;
#X connect 100 0 168 0;
#X connect 101 0 45 0;
#X connect 101 0 172 0;
#X connect 102 0 46 0;
#X connect 102 0 174 0;
#X connect 103 0 47 0;
#X connect 103 0 178 0;
#X connect 104 0 48 0;
#X connect 104 0 180 0;
#X connect 105 0 49 0;
#X connect 105 0 184 0;
#X connect 106 0 4 0;
#X connect 107 0 50 0;
#X connect 107 0 186 0;
#X connect 112 0 52 0;
#X connect 114 0 115 0;
#X connect 115 0 120 0;
#X connect 120 0 122 0;
#X connect 121 0 117 0;
#X connect 121 1 118 0;
#X connect 121 2 119 0;
#X connect 122 0 121 0;
#X connect 123 0 124 0;
#X connect 124 0 138 0;
#X connect 125 0 126 0;
#X connect 126 0 112 0;
#X connect 131 0 132 0;
#X connect 132 0 130 0;
#X connect 132 0 130 1;
#X connect 133 0 134 0;
#X connect 134 0 132 1;
#X connect 137 0 135 0;
#X connect 137 0 127 0;
#X connect 137 1 140 0;
#X connect 138 0 139 0;
#X connect 139 0 141 0;
#X connect 140 0 135 1;
#X connect 141 0 133 0;
#X connect 143 0 142 0;
#X connect 143 0 144 0;
#X connect 143 1 145 0;
#X connect 145 0 144 1;
#X connect 148 0 147 0;
#X connect 148 0 146 0;
#X connect 148 1 192 0;
#X connect 150 0 149 0;
#X connect 150 0 151 0;
#X connect 150 1 193 0;
#X connect 154 0 153 0;
#X connect 154 0 152 0;
#X connect 154 1 194 0;
#X connect 156 0 155 0;
#X connect 156 0 157 0;
#X connect 156 1 195 0;
#X connect 160 0 159 0;
#X connect 160 0 158 0;
#X connect 160 1 196 0;
#X connect 162 0 161 0;
#X connect 162 0 163 0;
#X connect 162 1 197 0;
#X connect 166 0 165 0;
#X connect 166 0 164 0;
#X connect 166 1 198 0;
#X connect 168 0 167 0;
#X connect 168 0 169 0;
#X connect 168 1 199 0;
#X connect 172 0 171 0;
#X connect 172 0 170 0;
#X connect 172 1 200 0;
#X connect 174 0 173 0;
#X connect 174 0 175 0;
#X connect 174 1 201 0;
#X connect 178 0 177 0;
#X connect 178 0 176 0;
#X connect 178 1 202 0;
#X connect 180 0 179 0;
#X connect 180 0 181 0;
#X connect 180 1 203 0;
#X connect 184 0 183 0;
#X connect 184 0 182 0;
#X connect 184 1 204 0;
#X connect 186 0 185 0;
#X connect 186 0 187 0;
#X connect 186 1 205 0;
#X connect 192 0 147 1;
#X connect 193 0 151 1;
#X connect 194 0 153 1;
#X connect 195 0 157 1;
#X connect 196 0 159 1;
#X connect 197 0 163 1;
#X connect 198 0 165 1;
#X connect 199 0 169 1;
#X connect 200 0 171 1;
#X connect 201 0 175 1;
#X connect 202 0 177 1;
#X connect 203 0 181 1;
#X connect 204 0 183 1;
#X connect 205 0 187 1;
